<svg version="1.1" xmlns="http://www.w3.org/2000/svg" viewBox="0 0 805.8218128177509 299.63547730549806" width="1611.6436256355018" height="599.2709546109961">
  <!-- svg-source:excalidraw -->
  
  <defs>
    <style>
      @font-face {
        font-family: "Virgil";
        src: url("https://excalidraw.com/Virgil.woff2");
      }
      @font-face {
        font-family: "Cascadia";
        src: url("https://excalidraw.com/Cascadia.woff2");
      }
    </style>
  </defs>
  <rect x="0" y="0" width="805.8218128177509" height="299.63547730549806" fill="#ffffff"></rect><g stroke-linecap="round" transform="translate(721.7708017883392 194.95197610294122) rotate(0 37.025505514705856 38.04802389705878)"><path d="M37.03 0 C44.05 -0.51, 53.3 3.04, 59.22 7.59 C65.14 12.15, 70.48 20.05, 72.56 27.35 C74.64 34.64, 74.3 44.25, 71.71 51.37 C69.12 58.49, 63.24 65.97, 57.01 70.08 C50.78 74.18, 41.72 76.55, 34.34 76 C26.96 75.44, 18.32 71.75, 12.74 66.76 C7.15 61.78, 2.39 53.5, 0.83 46.07 C-0.73 38.64, 0.29 29.08, 3.38 22.17 C6.47 15.26, 13.75 8.31, 19.36 4.61 C24.96 0.92, 34.08 0.64, 37.03 0 C39.97 -0.64, 37.03 0.13, 37.03 0.76 M37.03 0 C44.05 -0.51, 53.3 3.04, 59.22 7.59 C65.14 12.15, 70.48 20.05, 72.56 27.35 C74.64 34.64, 74.3 44.25, 71.71 51.37 C69.12 58.49, 63.24 65.97, 57.01 70.08 C50.78 74.18, 41.72 76.55, 34.34 76 C26.96 75.44, 18.32 71.75, 12.74 66.76 C7.15 61.78, 2.39 53.5, 0.83 46.07 C-0.73 38.64, 0.29 29.08, 3.38 22.17 C6.47 15.26, 13.75 8.31, 19.36 4.61 C24.96 0.92, 34.08 0.64, 37.03 0 C39.97 -0.64, 37.03 0.13, 37.03 0.76" stroke="none" stroke-width="0" fill="#fd7e14"></path><path d="M37.03 0 C44.05 -0.51, 53.3 3.04, 59.22 7.59 C65.14 12.15, 70.48 20.05, 72.56 27.35 C74.64 34.64, 74.3 44.25, 71.71 51.37 C69.12 58.49, 63.24 65.97, 57.01 70.08 C50.78 74.18, 41.72 76.55, 34.34 76 C26.96 75.44, 18.32 71.75, 12.74 66.76 C7.15 61.78, 2.39 53.5, 0.83 46.07 C-0.73 38.64, 0.29 29.08, 3.38 22.17 C6.47 15.26, 13.75 8.31, 19.36 4.61 C24.96 0.92, 34.08 0.64, 37.03 0 C39.97 -0.64, 37.03 0.13, 37.03 0.76 M37.03 0 C44.05 -0.51, 53.3 3.04, 59.22 7.59 C65.14 12.15, 70.48 20.05, 72.56 27.35 C74.64 34.64, 74.3 44.25, 71.71 51.37 C69.12 58.49, 63.24 65.97, 57.01 70.08 C50.78 74.18, 41.72 76.55, 34.34 76 C26.96 75.44, 18.32 71.75, 12.74 66.76 C7.15 61.78, 2.39 53.5, 0.83 46.07 C-0.73 38.64, 0.29 29.08, 3.38 22.17 C6.47 15.26, 13.75 8.31, 19.36 4.61 C24.96 0.92, 34.08 0.64, 37.03 0 C39.97 -0.64, 37.03 0.13, 37.03 0.76" stroke="#fd7e14" stroke-width="1" fill="none"></path></g><g stroke-linecap="round"><g transform="translate(755.3360768550074 218.62525344094706) rotate(0 -2.941927215366036 12.783976981780512)" fill-rule="evenodd"><path d="M0 0 L-12.17 24.21 L-0.5 25.57 L6.29 12.53 L0.86 0.54" stroke="none" stroke-width="0" fill="#fd7e14" fill-rule="evenodd"></path><path d="M0 0 C-4.42 8.79, -8.84 17.58, -12.17 24.21 M0 0 C-2.73 5.42, -5.45 10.85, -12.17 24.21 M-12.17 24.21 C-8.84 24.6, -5.51 24.98, -0.5 25.57 M-12.17 24.21 C-8.29 24.66, -4.41 25.11, -0.5 25.57 M-0.5 25.57 C1.84 21.08, 4.17 16.6, 6.29 12.53 M-0.5 25.57 C1.29 22.14, 3.08 18.71, 6.29 12.53 M6.29 12.53 C5.15 10.01, 4.01 7.49, 0.86 0.54 M6.29 12.53 C4.21 7.93, 2.12 3.33, 0.86 0.54 M0.86 0.54 C0.62 0.39, 0.38 0.24, 0 0 M0.86 0.54 C0.54 0.34, 0.22 0.14, 0 0" stroke="#f7f8f9" stroke-width="2" fill="none"></path></g></g><g stroke-linecap="round"><g transform="translate(774.4665004292615 235.39682552555405) rotate(0 -10.84528870027657 -9.359450420282798)" fill-rule="evenodd"><path d="M0 0 L-12.73 -27.58 L-24.82 -28.08 L-25.68 -19.57 L-19.48 -18.72 L-6.69 8.87 L3.14 9.36 L3.99 0.85 L0 0" stroke="none" stroke-width="0" fill="#fd7e14" fill-rule="evenodd"></path><path d="M0 0 C-4.45 -9.65, -8.9 -19.29, -12.73 -27.58 M0 0 C-3.35 -7.27, -6.71 -14.54, -12.73 -27.58 M-12.73 -27.58 C-15.44 -27.7, -18.15 -27.81, -24.82 -28.08 M-12.73 -27.58 C-15.69 -27.71, -18.65 -27.83, -24.82 -28.08 M-24.82 -28.08 C-25.03 -26.02, -25.24 -23.96, -25.68 -19.57 M-24.82 -28.08 C-25.05 -25.83, -25.27 -23.59, -25.68 -19.57 M-25.68 -19.57 C-23.57 -19.28, -21.46 -18.99, -19.48 -18.72 M-25.68 -19.57 C-23.44 -19.26, -21.19 -18.95, -19.48 -18.72 M-19.48 -18.72 C-16.75 -12.83, -14.02 -6.94, -6.69 8.87 M-19.48 -18.72 C-14.87 -8.77, -10.26 1.18, -6.69 8.87 M-6.69 8.87 C-3.66 9.02, -0.63 9.17, 3.14 9.36 M-6.69 8.87 C-3.56 9.02, -0.42 9.18, 3.14 9.36 M3.14 9.36 C3.41 6.61, 3.69 3.86, 3.99 0.85 M3.14 9.36 C3.38 6.95, 3.62 4.53, 3.99 0.85 M3.99 0.85 C3.18 0.68, 2.37 0.51, 0 0 M3.99 0.85 C2.62 0.56, 1.25 0.27, 0 0 M0 0 C0 0, 0 0, 0 0 M0 0 C0 0, 0 0, 0 0" stroke="#f7f8f9" stroke-width="2" fill="none"></path></g></g><g transform="translate(742.8657006853982 249.95473345588243) rotate(0 16.54434742647061 5.613260733981093)"><text x="0" y="9.2265214679622" font-family="Cascadia, Segoe UI Emoji" font-size="9.453912815126058px" fill="#fff" text-anchor="start" style="white-space: pre;" direction="ltr">LAMBDA</text></g><g stroke-linecap="round" transform="translate(484.77080178833944 195.95197610294122) rotate(0 37.025505514705856 38.04802389705878)"><path d="M37.03 0 C44.05 -0.51, 53.3 3.04, 59.22 7.59 C65.14 12.15, 70.48 20.05, 72.56 27.35 C74.64 34.64, 74.3 44.25, 71.71 51.37 C69.12 58.49, 63.24 65.97, 57.01 70.08 C50.78 74.18, 41.72 76.55, 34.34 76 C26.96 75.44, 18.32 71.75, 12.74 66.76 C7.15 61.78, 2.39 53.5, 0.83 46.07 C-0.73 38.64, 0.29 29.08, 3.38 22.17 C6.47 15.26, 13.75 8.31, 19.36 4.61 C24.96 0.92, 34.08 0.64, 37.03 0 C39.97 -0.64, 37.03 0.13, 37.03 0.76 M37.03 0 C44.05 -0.51, 53.3 3.04, 59.22 7.59 C65.14 12.15, 70.48 20.05, 72.56 27.35 C74.64 34.64, 74.3 44.25, 71.71 51.37 C69.12 58.49, 63.24 65.97, 57.01 70.08 C50.78 74.18, 41.72 76.55, 34.34 76 C26.96 75.44, 18.32 71.75, 12.74 66.76 C7.15 61.78, 2.39 53.5, 0.83 46.07 C-0.73 38.64, 0.29 29.08, 3.38 22.17 C6.47 15.26, 13.75 8.31, 19.36 4.61 C24.96 0.92, 34.08 0.64, 37.03 0 C39.97 -0.64, 37.03 0.13, 37.03 0.76" stroke="none" stroke-width="0" fill="#d7ac31"></path><path d="M37.03 0 C44.05 -0.51, 53.3 3.04, 59.22 7.59 C65.14 12.15, 70.48 20.05, 72.56 27.35 C74.64 34.64, 74.3 44.25, 71.71 51.37 C69.12 58.49, 63.24 65.97, 57.01 70.08 C50.78 74.18, 41.72 76.55, 34.34 76 C26.96 75.44, 18.32 71.75, 12.74 66.76 C7.15 61.78, 2.39 53.5, 0.83 46.07 C-0.73 38.64, 0.29 29.08, 3.38 22.17 C6.47 15.26, 13.75 8.31, 19.36 4.61 C24.96 0.92, 34.08 0.64, 37.03 0 C39.97 -0.64, 37.03 0.13, 37.03 0.76 M37.03 0 C44.05 -0.51, 53.3 3.04, 59.22 7.59 C65.14 12.15, 70.48 20.05, 72.56 27.35 C74.64 34.64, 74.3 44.25, 71.71 51.37 C69.12 58.49, 63.24 65.97, 57.01 70.08 C50.78 74.18, 41.72 76.55, 34.34 76 C26.96 75.44, 18.32 71.75, 12.74 66.76 C7.15 61.78, 2.39 53.5, 0.83 46.07 C-0.73 38.64, 0.29 29.08, 3.38 22.17 C6.47 15.26, 13.75 8.31, 19.36 4.61 C24.96 0.92, 34.08 0.64, 37.03 0 C39.97 -0.64, 37.03 0.13, 37.03 0.76" stroke="#d7ac31" stroke-width="2" fill="none"></path></g><g stroke-linecap="round" transform="translate(494.0496279861575 222.4979838709678) rotate(0 27.78492647058829 11.675091911764753)"><path d="M0 0 C20.46 0, 40.92 0, 55.57 0 M0 0 C17.84 0, 35.68 0, 55.57 0 M55.57 0 C55.57 8.06, 55.57 16.13, 55.57 23.35 M55.57 0 C55.57 7.48, 55.57 14.96, 55.57 23.35 M55.57 23.35 C41.59 23.35, 27.61 23.35, 0 23.35 M55.57 23.35 C38.37 23.35, 21.17 23.35, 0 23.35 M0 23.35 C0 14.76, 0 6.17, 0 0 M0 23.35 C0 18.44, 0 13.53, 0 0" stroke="#fff" stroke-width="2" fill="none"></path></g><g stroke-linecap="round" transform="translate(509.84926033909846 225.7470647533205) rotate(0 2.6183363970587834 8.237591911764696)"><path d="M0 0 C1.34 0, 2.69 0, 5.24 0 M0 0 C1.8 0, 3.6 0, 5.24 0 M5.24 0 C5.24 4.49, 5.24 8.98, 5.24 16.48 M5.24 0 C5.24 5.72, 5.24 11.44, 5.24 16.48 M5.24 16.48 C3.83 16.48, 2.42 16.48, 0 16.48 M5.24 16.48 C3.9 16.48, 2.56 16.48, 0 16.48 M0 16.48 C0 11.2, 0 5.93, 0 0 M0 16.48 C0 12.22, 0 7.97, 0 0" stroke="#fff" stroke-width="2" fill="none"></path></g><g stroke-linecap="round" transform="translate(518.7304050853038 225.67123754743818) rotate(0 2.6183363970587834 8.237591911764696)"><path d="M0 0 C1.13 0, 2.26 0, 5.24 0 M0 0 C1.52 0, 3.05 0, 5.24 0 M5.24 0 C5.24 3.4, 5.24 6.81, 5.24 16.48 M5.24 0 C5.24 6.26, 5.24 12.51, 5.24 16.48 M5.24 16.48 C3.93 16.48, 2.63 16.48, 0 16.48 M5.24 16.48 C3.93 16.48, 2.61 16.48, 0 16.48 M0 16.48 C0 10.77, 0 5.07, 0 0 M0 16.48 C0 11.37, 0 6.26, 0 0" stroke="#fff" stroke-width="2" fill="none"></path></g><g stroke-linecap="round" transform="translate(527.8251335008633 225.56553901802647) rotate(0 2.6183363970587834 8.237591911764696)"><path d="M0 0 C1.84 0, 3.68 0, 5.24 0 M0 0 C1.4 0, 2.81 0, 5.24 0 M5.24 0 C5.24 4.33, 5.24 8.67, 5.24 16.48 M5.24 0 C5.24 5.82, 5.24 11.64, 5.24 16.48 M5.24 16.48 C3.58 16.48, 1.93 16.48, 0 16.48 M5.24 16.48 C3.33 16.48, 1.43 16.48, 0 16.48 M0 16.48 C0 13.04, 0 9.6, 0 0 M0 16.48 C0 10.26, 0 4.04, 0 0" stroke="#fff" stroke-width="2" fill="none"></path></g><g stroke-linecap="round"><g transform="translate(499.58631205113784 229.55734762781537) rotate(0 3.169657846784162 4.598494699034461)"><path d="M0 0 C0 3.05, 0 6.1, 0 9.3 M0 0 C0 2.97, 0 5.94, 0 9.3 M0 9.3 C2.47 7.43, 4.95 5.56, 6.39 4.46 M0 9.3 C1.95 7.83, 3.89 6.35, 6.39 4.46 M6.39 4.46 C4.77 3.32, 3.15 2.17, -0.05 -0.11 M6.39 4.46 C4.73 3.29, 3.07 2.11, -0.05 -0.11" stroke="#fff" stroke-width="2" fill="none"></path></g></g><g stroke-linecap="round"><g transform="translate(537.5280370274188 229.06630902487439) rotate(0 3.169657846784162 4.598494699034461)"><path d="M0 0 C0 3.47, 0 6.94, 0 9.3 M0 0 C0 3.55, 0 7.1, 0 9.3 M0 9.3 C1.47 8.19, 2.93 7.08, 6.39 4.46 M0 9.3 C1.4 8.24, 2.8 7.18, 6.39 4.46 M6.39 4.46 C5.09 3.54, 3.78 2.62, -0.05 -0.11 M6.39 4.46 C4.21 2.92, 2.04 1.37, -0.05 -0.11" stroke="#fff" stroke-width="2" fill="none"></path></g></g><g stroke-linecap="round" transform="translate(27.93286882424036 203.5777436740853) rotate(0 48.98979248633407 27.951231295883872)"><path d="M-1.85 1.02 C27.01 -2.42, 50.76 0.09, 97.71 -1.54 M0.71 -0.54 C37.84 0.16, 74.16 0.84, 98.89 -0.63 M96.95 -0.51 C97.04 15.59, 98.82 30.88, 96.52 57.59 M98.35 -0.02 C97.26 12, 97.61 24.1, 98.42 55.42 M99.62 54.41 C63.43 54.75, 23.93 56.87, 0.69 55.98 M97.27 55.26 C76.04 54.89, 53.07 55.96, 0.14 55.31 M0.52 55.88 C1.4 36.07, -0.66 15.49, 1.14 -0.18 M-0.06 55.3 C-0.36 37.66, -0.43 19.55, 0.37 0.23" stroke="#000000" stroke-width="1" fill="none"></path></g><g stroke-linecap="round" transform="translate(22.522953089551265 196.364522694502) rotate(0 54.399708221021285 34.56335052716821)"><path d="M1.02 1.46 C39.71 0.66, 83.39 0.74, 107.26 1.63 M-0.54 0.44 C37 -1.41, 75.24 0.14, 108.17 -0.37 M108.29 -0.46 C109.4 16.07, 110 28.03, 110.48 67.59 M108.78 -0.43 C108.2 17.07, 107.81 34.73, 108.32 69.85 M107.31 71.04 C80.95 68.9, 56.71 70.71, 0.08 67.75 M108.15 69.85 C75.34 68.78, 43.61 68.49, -0.59 69.78 M-0.02 70.69 C0.44 45.81, 0.29 24.62, -0.18 0.42 M-0.61 68.75 C-0.53 48.13, -0.7 28.4, 0.23 -0.77" stroke="#000000" stroke-width="1" fill="none"></path></g><g stroke-linecap="round"><g transform="translate(28.233419698386115 270.8009558588091) rotate(0 3.096558519253449 -0.07979355080510686)"><path d="M0.41 -0.41 C2.13 0.26, 4.37 -0.46, 6.07 0.25 M0.12 -0.16 C1.09 0.06, 2.79 -0.15, 5.51 -0.24" stroke="#000000" stroke-width="4" fill="none"></path></g></g><g stroke-linecap="round"><g transform="translate(75.1193560656784 270.40022135994326) rotate(0 2.7253479412548813 -0.18172049133079327)"><path d="M-0.41 -0.1 C1.45 -0.12, 1.9 0.42, 5.86 -0.41 M-0.16 -0.18 C2.12 0.23, 3.99 -0.13, 5.37 -0.12" stroke="#000000" stroke-width="4" fill="none"></path></g></g><g stroke-linecap="round"><g transform="translate(51.07528613373688 270.40022135994326) rotate(0 2.656762077367432 0.11598533551037349)"><path d="M-0.1 0.29 C1.89 -0.39, 4.4 0.29, 5.2 0.4 M-0.18 0.03 C1.63 -0.14, 2.65 -0.21, 5.49 -0.14" stroke="#000000" stroke-width="4" fill="none"></path></g></g><g stroke-linecap="round"><g transform="translate(97.96122250102326 269.9994868610776) rotate(0 3.022562552585839 -0.02596992521026209)"><path d="M0.29 -0.08 C1.66 0.47, 4.44 -0.4, 6.01 -0.3 M0.03 0.26 C1.76 -0.07, 3.62 -0.08, 5.47 -0.07" stroke="#000000" stroke-width="4" fill="none"></path></g></g><g stroke-linecap="round"><g transform="translate(39.854720165493745 270.8009558588091) rotate(0 2.730950122385309 -0.07174314486280764)"><path d="M-0.08 -0.43 C1.73 0.22, 2.13 0.37, 5.31 0.25 M0.26 -0.18 C1.26 -0.25, 2.62 -0.15, 5.54 -0.06" stroke="#000000" stroke-width="4" fill="none"></path></g></g><g stroke-linecap="round"><g transform="translate(86.74065653278285 270.40022135994303) rotate(0 2.7136973824106008 0.07203501924152533)"><path d="M-0.43 0.46 C1.84 -0.41, 3.58 -0.3, 5.86 -0.31 M-0.18 -0.1 C1.08 -0.17, 2.51 -0.12, 5.55 0.13" stroke="#000000" stroke-width="4" fill="none"></path></g></g><g stroke-linecap="round"><g transform="translate(62.696586600840874 270.4002213599437) rotate(0 2.8159265520320105 -0.013511636569916163)"><path d="M0.46 0.25 C1.56 0.44, 3.64 0.29, 5.3 -0.36 M-0.1 -0.24 C1.63 -0.11, 3.43 -0.03, 5.74 0.19" stroke="#000000" stroke-width="4" fill="none"></path></g></g><g stroke-linecap="round"><g transform="translate(109.58252296813316 269.9994868610776) rotate(0 2.7765104769119944 -0.10222922304691906)"><path d="M0.25 -0.41 C2.01 -0.35, 3.46 -0.36, 5.25 0.07 M-0.24 -0.12 C2.05 -0.05, 4.33 0.15, 5.8 0.21" stroke="#000000" stroke-width="4" fill="none"></path></g></g><g stroke-linecap="round"><g transform="translate(120.8030889363713 270.40022135994326) rotate(0 2.7029122690130407 0.15361881583493187)"><path d="M-0.41 0.4 C0.95 0.22, 2.19 -0.38, 5.68 0.51 M-0.12 -0.14 C1.26 -0.02, 2.79 0.23, 5.82 -0.2" stroke="#000000" stroke-width="4" fill="none"></path></g></g><g stroke-linecap="round"><g transform="translate(34.244437181373996 276.8119733417946) rotate(0 2.9893358352843507 -0.05767509330166831)"><path d="M0.4 -0.3 C2.39 -0.27, 3.93 0.11, 6.12 -0.35 M-0.14 -0.07 C1.41 0.15, 3.14 0.23, 5.41 0.24" stroke="#000000" stroke-width="4" fill="none"></path></g></g><g stroke-linecap="round"><g transform="translate(24.226074709732075 276.81197334179495) rotate(0 2.7708787960490326 0.01682457167322582)"><path d="M-0.3 0.25 C1.62 -0.4, 3.94 0.47, 5.26 -0.21 M-0.07 -0.06 C1.32 0.21, 2.6 -0.18, 5.85 -0.22" stroke="#000000" stroke-width="4" fill="none"></path></g></g><g stroke-linecap="round"><g transform="translate(81.13037354866356 276.41123884292944) rotate(0 2.668974697711917 -0.14973342494118924)"><path d="M0.25 -0.31 C0.91 0.1, 3.05 -0.32, 5.4 -0.49 M-0.06 0.13 C1.63 0.22, 2.69 0.25, 5.39 -0.15" stroke="#000000" stroke-width="4" fill="none"></path></g></g><g stroke-linecap="round"><g transform="translate(57.08630361671794 276.41123884292966) rotate(0 2.575064629813369 -0.08482954126174036)"><path d="M-0.31 -0.36 C2.15 0.49, 3.82 -0.23, 5.12 -0.24 M0.13 0.19 C1.61 -0.19, 3.03 -0.2, 5.46 -0.05" stroke="#000000" stroke-width="4" fill="none"></path></g></g><g stroke-linecap="round"><g transform="translate(103.97223998400796 276.0105043440638) rotate(0 2.600605199072163 -0.07400371303307907)"><path d="M-0.36 0.07 C1.89 -0.32, 2.55 -0.45, 5.37 -0.29 M0.19 0.21 C1.33 0.21, 2.86 -0.17, 5.56 0.1" stroke="#000000" stroke-width="4" fill="none"></path></g></g><g stroke-linecap="round"><g transform="translate(45.8657376484789 276.81197334179495) rotate(0 2.890252281627113 0.14944308376715298)"><path d="M0.07 0.51 C1.58 -0.17, 3.38 -0.2, 5.32 -0.14 M0.21 -0.2 C1.79 -0.25, 2.96 -0.09, 5.71 -0.01" stroke="#000000" stroke-width="4" fill="none"></path></g></g><g stroke-linecap="round"><g transform="translate(92.75167401577164 276.4112388429293) rotate(0 2.6998663437688606 -0.08120268456369217)"><path d="M0.51 -0.35 C1.16 -0.49, 2.5 -0.29, 5.47 -0.13 M-0.2 0.24 C1.72 -0.19, 3.82 0.06, 5.6 -0.12" stroke="#000000" stroke-width="4" fill="none"></path></g></g><g stroke-linecap="round"><g transform="translate(68.70760408382557 276.41123884292864) rotate(0 2.5688531279935205 0.008552672821537044)"><path d="M-0.35 -0.21 C0.84 -0.29, 2.37 -0.2, 5.48 0.25 M0.24 -0.22 C1.91 -0.01, 4.21 0.04, 5.49 -0.13" stroke="#000000" stroke-width="4" fill="none"></path></g></g><g stroke-linecap="round"><g transform="translate(115.59354045111559 276.010504344063) rotate(0 2.823170284419689 -0.05726203029595922)"><path d="M-0.21 -0.49 C1.51 -0.25, 3.36 -0.09, 5.86 0.37 M-0.22 -0.15 C2.05 0.06, 4.2 -0.17, 5.48 -0.02" stroke="#000000" stroke-width="4" fill="none"></path></g></g><g stroke-linecap="round"><g transform="translate(126.81410641935372 276.4112388429291) rotate(0 2.7478794617640574 0.09018742373106647)"><path d="M-0.49 -0.24 C1.91 -0.12, 4.26 0.27, 5.98 0.42 M-0.15 -0.05 C1.38 0.04, 2.43 -0.09, 5.59 -0.24" stroke="#000000" stroke-width="4" fill="none"></path></g></g><g stroke-linecap="round"><g transform="translate(40.25545466436142 282.8229908247811) rotate(0 2.89610335143567 -0.14246475370356393)"><path d="M-0.24 -0.29 C1.19 -0.08, 2.91 0.42, 6.03 -0.41 M-0.05 0.1 C2.15 -0.09, 4.18 0.01, 5.37 0.12" stroke="#000000" stroke-width="4" fill="none"></path></g></g><g stroke-linecap="round"><g transform="translate(30.237092192716773 282.8229908247804) rotate(0 2.7238277931353423 0.15110473021672988)"><path d="M-0.29 -0.14 C1.35 0.28, 3.32 0.44, 5.2 0.47 M0.1 -0.01 C1.13 -0.12, 2.48 -0.23, 5.74 -0.14" stroke="#000000" stroke-width="4" fill="none"></path></g></g><g stroke-linecap="round"><g transform="translate(109.98325746699447 282.0215218270496) rotate(0 2.9693147291407627 -0.11436981425495674)"><path d="M-0.14 -0.13 C1.45 0.4, 2.81 -0.38, 6.08 -0.43 M-0.01 -0.12 C1.26 -0.04, 2.54 0.1, 5.48 0.2" stroke="#000000" stroke-width="4" fill="none"></path></g></g><g stroke-linecap="round"><g transform="translate(57.396804396908465 283.32700410344387) rotate(0 20.913574714585934 -0.39506063693437454)"><path d="M-0.46 0.9 C12.04 1.38, 19.96 1.34, 40.02 -1.91 M-0.43 -0.47 C11.6 -1.09, 23.79 -0.96, 42.28 -1.44" stroke="#000000" stroke-width="4" fill="none"></path></g></g><g stroke-linecap="round"><g transform="translate(121.6045579341012 282.02152182704936) rotate(0 2.658205153458084 0.0387688248992788)"><path d="M0.25 0.37 C1.82 -0.4, 3.26 -0.42, 5.32 -0.11 M-0.13 -0.02 C1.65 0.15, 3.64 0.23, 5.45 0.09" stroke="#000000" stroke-width="4" fill="none"></path></g></g><g stroke-linecap="round"><g transform="translate(11.339212497417975 287.98719180241255) rotate(0 69.2894354645963 -11.258084683783835)"><path d="M1.33 1.5 C36.46 1.06, 74.31 -1.66, 137.87 0.73 M-0.08 -0.85 C41.64 0.17, 83.11 0.07, 138.59 0.82 M137.13 0.64 C135.21 -4.92, 129.62 -9.85, 121.9 -23.06 M138.68 0.41 C134.56 -5.78, 131.4 -9.98, 122.86 -21.38 M122.14 -21.19 C90.89 -21.67, 57.3 -21.72, 13.3 -22.37 M122.18 -22.11 C96.66 -21.88, 69.19 -21.96, 11.84 -21.77 M14.4 -24.01 C8.54 -15.94, 7.54 -10.62, -0.1 0.29 M12.82 -21.89 C8.36 -15.64, 4.23 -8.67, 0.12 -0.87" stroke="#000000" stroke-width="1" fill="none"></path></g></g><g stroke-linecap="round" transform="translate(10 286.83033581343807) rotate(0 69.12670105433631 1.402570746029994)"><path d="M1.5 -1.46 C40.01 -2.45, 75.62 -1.3, 138.99 -0.04 M-0.85 0.44 C35.03 0.83, 70.45 0.44, 139.08 -0.74 M138.34 0.1 C138.24 0.92, 138.24 2.12, 138.05 2.62 M138.31 0.02 C138.15 1.14, 138.28 2.12, 138.29 2.8 M138.71 3.95 C85.77 2.89, 33.6 3.14, -0.12 1.59 M137.79 3.18 C102.22 1.42, 66.01 1.41, 0.47 2.54 M-0.25 2.72 C0.03 2.27, -0.07 1.2, 0.04 -0.01 M0.05 2.75 C0 2.07, 0.05 1.55, -0.12 0.01" stroke="#000000" stroke-width="1" fill="none"></path></g><g transform="translate(33.796307303045296 221.5) rotate(0 44 10.5)"><text x="0" y="15" font-family="Virgil, Segoe UI Emoji" font-size="16px" fill="#000000" text-anchor="start" style="white-space: pre;" direction="ltr">analytics.js</text></g><g transform="translate(502.2519598765748 252.38673926601894) rotate(0 19.5 6.5)"><text x="0" y="10" font-family="Cascadia, Segoe UI Emoji" font-size="9.453912815126058px" fill="#fff" text-anchor="start" style="white-space: pre;" direction="ltr">KINESIS</text></g><g stroke-linecap="round"><g transform="translate(139.7963073030453 233.98772490276303) rotate(0 66.31081924155382 -1.452275042505164)"><path d="M0.54 0.09 C22.75 -0.1, 111.22 -1.15, 133.25 -1.48 M-0.63 -0.91 C21.45 -1.37, 110.43 -2.51, 132.52 -2.99" stroke="#000000" stroke-width="1" fill="none"></path></g><g transform="translate(139.7963073030453 233.98772490276303) rotate(0 66.31081924155382 -1.452275042505164)"><path d="M104.65 8.44 C114.98 4.18, 122.8 1.06, 133.13 -4.1 M104.33 6.98 C110.56 4.66, 117.33 3.12, 132.11 -3.41" stroke="#000000" stroke-width="1" fill="none"></path></g><g transform="translate(139.7963073030453 233.98772490276303) rotate(0 66.31081924155382 -1.452275042505164)"><path d="M104.31 -12.08 C114.68 -10.12, 122.6 -7.01, 133.13 -4.1 M103.99 -13.54 C110.23 -11.03, 117.08 -7.74, 132.11 -3.41" stroke="#000000" stroke-width="1" fill="none"></path></g></g><g stroke-linecap="round" transform="translate(284.7963073030453 196) rotate(0 38 38)"><path d="M9.13 11.91 C9.13 11.91, 9.13 11.91, 9.13 11.91 M9.13 11.91 C9.13 11.91, 9.13 11.91, 9.13 11.91 M5.52 24 C10.39 17.15, 12.47 12.34, 21.78 3.39 M5.27 24.41 C8.6 18.81, 12.33 13.53, 20.96 4.72 M0.76 36.86 C3.77 27.56, 10.12 20.59, 29.44 3.68 M-0.14 35.88 C9.85 23.33, 20.13 10.09, 27.63 1.3 M0.55 37.96 C7.82 28.56, 16.5 22.89, 33.83 3.29 M1.6 38.67 C11.73 28.21, 20.1 17.25, 33.69 1.62 M3.74 43.03 C13.92 28.78, 27.37 15.87, 37.77 2.47 M1.37 44.62 C15.45 28.96, 28.48 12.89, 37.37 2.93 M5.83 49.12 C15.04 36.26, 25.72 24.39, 43.43 0.65 M4.01 47.98 C12.38 38.4, 21.08 28.58, 44.25 1.58 M5.46 52.73 C21.55 33.24, 41.09 16.31, 47.96 3.81 M4.77 53.09 C17.45 39.77, 27.53 26.53, 47.93 2.87 M5.34 59.11 C19.03 43.62, 32.18 28.62, 52.48 1.95 M7.26 58.19 C21.53 39.89, 36.36 23.13, 52.93 4.08 M10.73 59.3 C26.23 42.65, 40.87 23.62, 55.8 6.73 M9.81 60.04 C23.38 42.41, 40.19 26.13, 55.39 6.63 M11.06 63.77 C24.34 47.72, 37.75 32.87, 59.38 8.96 M12.15 64.05 C28.16 43.39, 45.09 24.77, 60.02 9.09 M15.58 64.88 C31.12 49.98, 44.58 28.24, 61.11 12.73 M14.99 66.28 C30.97 47.15, 48.44 28.09, 62.85 11.89 M19.81 70.26 C36.56 47.02, 54.62 24.76, 66.26 14.69 M17.4 69.35 C31.65 54.11, 44.76 38.04, 66.13 14.04 M21.81 73.12 C35.58 54.51, 51.69 34.78, 68.54 14.36 M21.13 72.29 C38.06 50.68, 57.79 30.63, 68.35 16.09 M25.24 72.27 C43.16 52.26, 61.56 31.1, 73.08 17.96 M24.57 73.1 C35.03 60.08, 46.54 47.01, 73.23 17.36 M31 75.21 C38.69 63.92, 51.49 50.47, 75.56 22.97 M28.39 73.33 C45.66 55.06, 62.16 36.71, 73.76 23.15 M35.02 76.23 C46.28 60.98, 56.83 46.3, 73.71 28.15 M34.31 74.74 C45.62 61.08, 56.34 48.41, 75.72 28.24 M39.87 74.89 C50.15 64.28, 60.5 50.68, 74.46 34.67 M38.62 75.36 C48.64 63.48, 59.12 50.31, 75.81 32.5 M44.45 73.65 C53.8 62.56, 66.91 48.72, 78.3 36.37 M44.92 75.54 C55.49 60.34, 69.98 47.01, 75.9 36.79 M49.02 75.92 C61.77 62.82, 71.71 51.06, 79.58 42.34 M49.06 75.61 C55.6 68.85, 62.65 59.32, 78.36 42 M63.36 66.71 C66.66 60.85, 68.63 57.68, 75.28 52.34 M62.51 65.4 C65.66 62.36, 69.3 59.57, 73.3 53.66" stroke="#82c91e" stroke-width="0.5" fill="none"></path><path d="M26.64 1.03 C33.31 -1.68, 43.18 -0.88, 50.47 1.67 C57.77 4.22, 66.18 9.93, 70.42 16.34 C74.66 22.74, 76.44 32.64, 75.91 40.1 C75.39 47.57, 71.96 55.19, 67.25 61.11 C62.54 67.03, 54.87 73.48, 47.65 75.62 C40.43 77.75, 30.8 76.89, 23.93 73.94 C17.06 70.99, 10.54 64.39, 6.45 57.92 C2.36 51.46, -1.04 42.81, -0.6 35.16 C-0.17 27.51, 3.16 17.89, 9.03 12.03 C14.9 6.16, 29.1 1.7, 34.59 -0.02 C40.08 -1.74, 41.97 1.12, 41.98 1.7 M25.11 1.18 C31.71 -1.91, 43.16 -1.8, 50.52 0.81 C57.89 3.42, 64.94 10.74, 69.3 16.83 C73.65 22.92, 76.62 30.21, 76.66 37.34 C76.7 44.47, 74 53.23, 69.54 59.61 C65.07 65.98, 57.43 73.18, 49.88 75.59 C42.33 77.99, 31.57 77.02, 24.24 74.03 C16.91 71.04, 9.97 64.07, 5.9 57.66 C1.84 51.25, -0.51 42.68, -0.14 35.58 C0.23 28.47, 3.85 20.38, 8.14 15.06 C12.43 9.73, 22.55 5.67, 25.62 3.63 C28.7 1.59, 26.6 2.31, 26.59 2.82" stroke="#5c940d" stroke-width="1" fill="none"></path></g><g transform="translate(292.7963073030453 223.5) rotate(0 31 10.5)"><text x="0" y="15" font-family="Virgil, Segoe UI Emoji" font-size="16px" fill="#000000" text-anchor="start" style="white-space: pre;" direction="ltr">Segment</text></g><g stroke-linecap="round"><g transform="translate(368.7963073030453 234) rotate(0 53.06509095107202 0.1997511510669483)"><path d="M0.02 -0.87 C17.88 -0.96, 89.73 -0.83, 107.56 -0.62 M-1.43 1.29 C16.2 1.36, 87.92 1.11, 106.38 0.6" stroke="#000000" stroke-width="1" fill="none"></path></g><g transform="translate(368.7963073030453 234) rotate(0 53.06509095107202 0.1997511510669483)"><path d="M76.89 10.52 C86.6 6.07, 97.56 2.71, 105.91 -1.06 M78.4 11.24 C87.35 7.54, 97.41 3.16, 107.16 0.89" stroke="#000000" stroke-width="1" fill="none"></path></g><g transform="translate(368.7963073030453 234) rotate(0 53.06509095107202 0.1997511510669483)"><path d="M76.6 -10 C86.4 -7.66, 97.45 -4.22, 105.91 -1.06 M78.12 -9.28 C87.14 -5.79, 97.3 -2.97, 107.16 0.89" stroke="#000000" stroke-width="1" fill="none"></path></g></g><g stroke-linecap="round"><g transform="translate(711.8120455031844 234.59501299135172) rotate(0 -72.08723488407861 1.1554466159789172)"><path d="M0.04 0.55 C-24.05 0.88, -119.57 1.03, -143.51 1.27 M-1.41 -0.21 C-25.69 0.35, -120.42 1.91, -144.21 2.52" stroke="#000000" stroke-width="1" fill="none"></path></g><g transform="translate(711.8120455031844 234.59501299135172) rotate(0 -72.08723488407861 1.1554466159789172)"><path d="M-115.32 -7.53 C-127.89 -3.53, -137.33 -1.07, -145.36 4.2 M-116.75 -8.77 C-126.91 -3.94, -136.62 -1.33, -145.07 1.94" stroke="#000000" stroke-width="1" fill="none"></path></g><g transform="translate(711.8120455031844 234.59501299135172) rotate(0 -72.08723488407861 1.1554466159789172)"><path d="M-114.9 12.99 C-127.5 9.17, -137.1 3.81, -145.36 4.2 M-116.33 11.74 C-126.57 9.25, -136.43 4.54, -145.07 1.94" stroke="#000000" stroke-width="1" fill="none"></path></g></g><g stroke-linecap="round" transform="translate(715.7963073030453 10) rotate(0 38 38)"><path d="M14.45 8.59 C14.45 8.59, 14.45 8.59, 14.45 8.59 M14.45 8.59 C14.45 8.59, 14.45 8.59, 14.45 8.59 M3.55 30.9 C5.92 22.15, 13.81 15, 22.05 3.18 M1.65 29 C5.88 25.22, 10.12 18.37, 23.46 3.72 M2.43 34.93 C6.84 29.04, 14.19 21.33, 30.4 0.16 M1.2 35.48 C11.42 24.92, 20.48 14.15, 31.1 0.79 M4.34 39.73 C10.12 34.47, 17.77 24.77, 37.71 3.82 M3.04 39.89 C10.12 30.79, 19.52 20.83, 35.94 2.22 M3.62 47.67 C16.62 30.79, 31.31 11.58, 40.34 0.64 M2.6 46.96 C15.32 29.91, 31.01 15.3, 40.53 2.73 M2.12 50.95 C19 34.87, 35.79 16.41, 43.36 3.16 M1.86 53.05 C16.83 35.16, 31.37 19.61, 44.91 3.59 M5.16 56.03 C17.77 44.81, 27.1 28.45, 51.11 3.61 M5.77 56.59 C18.72 40.32, 30.29 26.49, 50.73 3.31 M9.59 57.87 C23.39 43, 36.12 29.79, 54.61 4.15 M7.94 59.23 C23.33 41.96, 38.09 25.02, 55.16 3.77 M9.72 62.09 C23.6 45.34, 38.26 26.56, 57.5 7.79 M11.01 62.01 C25.11 44.8, 40.58 27.08, 58.4 6.15 M13.96 65.39 C29 46.2, 48.83 24.01, 60.59 10.03 M14.87 64.75 C27.22 50.4, 38.33 35.33, 60.73 10.54 M14.8 66.73 C32.84 49.51, 45.29 33.39, 65.32 13.37 M17.16 67.19 C33.51 49.37, 48.38 30.6, 63.48 11.38 M20.77 68.06 C36.47 48.62, 52.57 33.27, 66.97 14.7 M18.76 70.68 C30.64 56.39, 42.36 44.29, 66.87 14.88 M23.82 72.48 C38.76 51.17, 55.27 35.14, 72.04 17 M21.69 72.32 C35.98 55.97, 48.05 41.88, 70.79 17.64 M28.54 75.41 C44.71 56.57, 57.05 35.57, 72.86 19.8 M25.89 73.1 C43.16 56.58, 58.24 38.1, 72.03 21.07 M30.25 76.35 C44.22 58.66, 61.94 40.88, 73.59 26.07 M29.8 75.61 C45.55 57.07, 62.26 39.05, 73.77 25.34 M34.86 74.95 C49.78 59.11, 63.19 41.77, 74.8 30.46 M33.81 77.11 C44.48 66.24, 54.21 54.61, 74.74 31.44 M40.95 78.83 C51.55 66.29, 61.94 53, 74.18 35.68 M38.81 77.29 C46.8 69.96, 53.15 60.81, 75.38 36.66 M43.68 80.15 C53.88 65.16, 62.24 54.85, 74.54 42 M43.66 79.83 C51.09 70.53, 59.31 60.77, 76.47 42 M54.06 72.85 C61.08 67.37, 68.27 58.61, 79.04 44.12 M53 75.58 C59.63 66.1, 68.08 56.83, 77.79 46.03 M61.43 72.32 C63.36 68.85, 65.96 66.2, 69.77 60.35 M61.3 71.62 C62.52 69.88, 64.29 67.75, 69.48 61.42" stroke="#fab005" stroke-width="0.5" fill="none"></path><path d="M31.06 1.17 C38.21 -0.5, 49.15 1.2, 56.05 4.4 C62.95 7.6, 69.13 13.59, 72.44 20.36 C75.76 27.14, 77.19 37.41, 75.93 45.07 C74.68 52.74, 70.66 61.12, 64.93 66.38 C59.2 71.64, 49.15 76.03, 41.56 76.64 C33.97 77.26, 25.89 73.97, 19.37 70.08 C12.85 66.2, 5.47 60.22, 2.43 53.33 C-0.6 46.44, -0.81 36.19, 1.17 28.75 C3.16 21.32, 8.87 13.49, 14.35 8.7 C19.83 3.92, 30.54 1.2, 34.07 0.04 C37.61 -1.12, 35.67 1.23, 35.57 1.76 M47.05 0.44 C54.1 1.64, 62.73 7.05, 67.67 13.08 C72.62 19.11, 76.41 28.94, 76.69 36.61 C76.98 44.28, 73.87 52.94, 69.39 59.08 C64.9 65.22, 57.15 70.91, 49.8 73.46 C42.45 76.02, 32.49 76.45, 25.29 74.43 C18.1 72.4, 10.87 67.48, 6.62 61.31 C2.37 55.14, -0.62 45.21, -0.21 37.41 C0.2 29.6, 4.3 20.3, 9.06 14.46 C13.83 8.62, 21.93 4.42, 28.38 2.37 C34.82 0.33, 44.4 2.12, 47.74 2.18 C51.09 2.24, 48.71 2.28, 48.44 2.76" stroke="#e67700" stroke-width="1" fill="none"></path></g><g transform="translate(729.7963073030453 37.5) rotate(0 27.5 10.5)"><text x="0" y="15" font-family="Virgil, Segoe UI Emoji" font-size="16px" fill="#000000" text-anchor="start" style="white-space: pre;" direction="ltr">Elastic</text></g><g stroke-linecap="round"><g transform="translate(755.7963073030453 187) rotate(0 -0.36943431881820743 -47.153896104060124)"><path d="M0.09 0 C0.33 -15.5, 0.69 -77.02, 0.56 -92.81 M-1.33 -1.05 C-1.11 -16.86, -0.01 -78.84, -0.09 -94.31" stroke="#000000" stroke-width="1" fill="none"></path></g><g transform="translate(755.7963073030453 187) rotate(0 -0.36943431881820743 -47.153896104060124)"><path d="M9.94 -65.1 C9.65 -73.51, 4.17 -77.86, -0.44 -94.54 M10.5 -65.16 C5.93 -76.26, 3.68 -84.89, -0.74 -94.49" stroke="#000000" stroke-width="1" fill="none"></path></g><g transform="translate(755.7963073030453 187) rotate(0 -0.36943431881820743 -47.153896104060124)"><path d="M-10.58 -65.26 C-6.28 -73.66, -7.15 -77.97, -0.44 -94.54 M-10.02 -65.32 C-7.55 -76.52, -2.77 -85.1, -0.74 -94.49" stroke="#000000" stroke-width="1" fill="none"></path></g></g></svg>